<svg width="140" height="184" viewBox="0 0 140 184" fill="none" xmlns="http://www.w3.org/2000/svg">
<path d="M9.55173 0C8.92429 0 8.3109 0.186052 7.7892 0.534642C7.26749 0.883231 6.86082 1.37868 6.62071 1.95836C6.3806 2.53805 6.31784 3.17593 6.44025 3.79132C6.56266 4.40671 6.86481 4.97197 7.30848 5.41564C7.75215 5.85931 8.31738 6.16146 8.93277 6.28387C9.54816 6.40628 10.1861 6.34345 10.7658 6.10334C11.3455 5.86323 11.8409 5.45659 12.1895 4.93489C12.5381 4.41319 12.7242 3.79986 12.7242 3.17241C12.7242 2.33104 12.3899 1.5241 11.795 0.92916C11.2 0.334217 10.3931 0 9.55173 0Z" fill="#A85EA0"/>
<path d="M9.55173 25.3793C8.92429 25.3793 8.3109 25.5653 7.7892 25.9139C7.26749 26.2625 6.86082 26.758 6.62071 27.3376C6.3806 27.9173 6.31784 28.5552 6.44025 29.1706C6.56266 29.786 6.86481 30.3512 7.30848 30.7949C7.75215 31.2386 8.31738 31.5407 8.93277 31.6631C9.54816 31.7855 10.1861 31.7227 10.7658 31.4826C11.3455 31.2425 11.8409 30.8359 12.1895 30.3142C12.5381 29.7925 12.7242 29.1791 12.7242 28.5517C12.7242 27.7103 12.3899 26.9034 11.795 26.3084C11.2 25.7135 10.3931 25.3793 9.55173 25.3793Z" fill="#A85EA0"/>
<path d="M9.55173 50.7587C8.92429 50.7587 8.3109 50.9447 7.7892 51.2933C7.26749 51.6419 6.86082 52.1373 6.62071 52.717C6.3806 53.2967 6.31784 53.9345 6.44025 54.5499C6.56266 55.1653 6.86481 55.7306 7.30848 56.1742C7.75215 56.6179 8.31738 56.92 8.93277 57.0424C9.54816 57.1648 10.1861 57.102 10.7658 56.8619C11.3455 56.6218 11.8409 56.2152 12.1895 55.6935C12.5381 55.1718 12.7242 54.5585 12.7242 53.931C12.7242 53.0897 12.3899 52.2827 11.795 51.6878C11.2 51.0929 10.3931 50.7587 9.55173 50.7587Z" fill="#A85EA0"/>
<path d="M9.55173 76.1379C8.92429 76.1379 8.3109 76.324 7.7892 76.6726C7.26749 77.0212 6.86082 77.5166 6.62071 78.0963C6.3806 78.676 6.31784 79.3139 6.44025 79.9293C6.56266 80.5446 6.86481 81.1099 7.30848 81.5536C7.75215 81.9972 8.31738 82.2994 8.93277 82.4218C9.54816 82.5442 10.1861 82.4814 10.7658 82.2413C11.3455 82.0012 11.8409 81.5945 12.1895 81.0728C12.5381 80.5511 12.7242 79.9378 12.7242 79.3104C12.7242 78.469 12.3899 77.662 11.795 77.0671C11.2 76.4722 10.3931 76.1379 9.55173 76.1379Z" fill="#A85EA0"/>
<path d="M9.55173 101.517C8.92429 101.517 8.3109 101.703 7.7892 102.052C7.26749 102.4 6.86082 102.896 6.62071 103.476C6.3806 104.055 6.31784 104.693 6.44025 105.309C6.56266 105.924 6.86481 106.489 7.30848 106.933C7.75215 107.377 8.31738 107.679 8.93277 107.801C9.54816 107.923 10.1861 107.861 10.7658 107.621C11.3455 107.38 11.8409 106.974 12.1895 106.452C12.5381 105.93 12.7242 105.317 12.7242 104.69C12.7242 103.848 12.3899 103.041 11.795 102.446C11.2 101.851 10.3931 101.517 9.55173 101.517Z" fill="#A85EA0"/>
<path d="M9.55173 126.897C8.92429 126.897 8.3109 127.083 7.7892 127.431C7.26749 127.78 6.86082 128.275 6.62071 128.855C6.3806 129.435 6.31784 130.072 6.44025 130.688C6.56266 131.303 6.86481 131.868 7.30848 132.312C7.75215 132.756 8.31738 133.058 8.93277 133.18C9.54816 133.303 10.1861 133.24 10.7658 133C11.3455 132.76 11.8409 132.353 12.1895 131.831C12.5381 131.31 12.7242 130.696 12.7242 130.069C12.7242 129.228 12.3899 128.421 11.795 127.826C11.2 127.231 10.3931 126.897 9.55173 126.897Z" fill="#A85EA0"/>
<path d="M9.55173 152.276C8.92429 152.276 8.3109 152.462 7.7892 152.811C7.26749 153.159 6.86082 153.655 6.62071 154.234C6.3806 154.814 6.31784 155.452 6.44025 156.067C6.56266 156.683 6.86481 157.248 7.30848 157.692C7.75215 158.135 8.31738 158.437 8.93277 158.56C9.54816 158.682 10.1861 158.619 10.7658 158.379C11.3455 158.139 11.8409 157.732 12.1895 157.211C12.5381 156.689 12.7242 156.076 12.7242 155.448C12.7242 154.607 12.3899 153.8 11.795 153.205C11.2 152.61 10.3931 152.276 9.55173 152.276Z" fill="#A85EA0"/>
<path d="M9.55173 177.655C8.92429 177.655 8.3109 177.841 7.7892 178.19C7.26749 178.538 6.86082 179.034 6.62071 179.614C6.3806 180.193 6.31784 180.831 6.44025 181.446C6.56266 182.062 6.86481 182.627 7.30848 183.071C7.75215 183.514 8.31738 183.817 8.93277 183.939C9.54816 184.061 10.1861 183.999 10.7658 183.758C11.3455 183.518 11.8409 183.112 12.1895 182.59C12.5381 182.068 12.7242 181.455 12.7242 180.828C12.7242 179.986 12.3899 179.179 11.795 178.584C11.2 177.989 10.3931 177.655 9.55173 177.655Z" fill="#A85EA0"/>
<path d="M34.9311 0C34.3037 0 33.6903 0.186052 33.1686 0.534642C32.6469 0.883231 32.2402 1.37868 32.0001 1.95836C31.76 2.53805 31.6972 3.17593 31.8196 3.79132C31.9421 4.40671 32.2442 4.97197 32.6879 5.41564C33.1315 5.85931 33.6968 6.16146 34.3122 6.28387C34.9276 6.40628 35.5655 6.34345 36.1452 6.10334C36.7249 5.86323 37.2203 5.45659 37.5689 4.93489C37.9175 4.41319 38.1035 3.79986 38.1035 3.17241C38.1035 2.33104 37.7693 1.5241 37.1744 0.92916C36.5794 0.334217 35.7725 0 34.9311 0Z" fill="#A85EA0"/>
<path d="M34.9311 25.3793C34.3037 25.3793 33.6903 25.5653 33.1686 25.9139C32.6469 26.2625 32.2402 26.758 32.0001 27.3376C31.76 27.9173 31.6972 28.5552 31.8196 29.1706C31.9421 29.786 32.2442 30.3512 32.6879 30.7949C33.1315 31.2386 33.6968 31.5407 34.3122 31.6631C34.9276 31.7855 35.5655 31.7227 36.1452 31.4826C36.7249 31.2425 37.2203 30.8359 37.5689 30.3142C37.9175 29.7925 38.1035 29.1791 38.1035 28.5517C38.1035 27.7103 37.7693 26.9034 37.1744 26.3084C36.5794 25.7135 35.7725 25.3793 34.9311 25.3793Z" fill="#A85EA0"/>
<path d="M34.9311 50.7587C34.3037 50.7587 33.6903 50.9447 33.1686 51.2933C32.6469 51.6419 32.2402 52.1373 32.0001 52.717C31.76 53.2967 31.6972 53.9345 31.8196 54.5499C31.9421 55.1653 32.2442 55.7306 32.6879 56.1742C33.1315 56.6179 33.6968 56.92 34.3122 57.0424C34.9276 57.1648 35.5655 57.102 36.1452 56.8619C36.7249 56.6218 37.2203 56.2152 37.5689 55.6935C37.9175 55.1718 38.1035 54.5585 38.1035 53.931C38.1035 53.0897 37.7693 52.2827 37.1744 51.6878C36.5794 51.0929 35.7725 50.7587 34.9311 50.7587Z" fill="#A85EA0"/>
<path d="M34.9311 76.1379C34.3037 76.1379 33.6903 76.324 33.1686 76.6726C32.6469 77.0212 32.2402 77.5166 32.0001 78.0963C31.76 78.676 31.6972 79.3139 31.8196 79.9293C31.9421 80.5446 32.2442 81.1099 32.6879 81.5536C33.1315 81.9972 33.6968 82.2994 34.3122 82.4218C34.9276 82.5442 35.5655 82.4814 36.1452 82.2413C36.7249 82.0012 37.2203 81.5945 37.5689 81.0728C37.9175 80.5511 38.1035 79.9378 38.1035 79.3104C38.1035 78.469 37.7693 77.662 37.1744 77.0671C36.5794 76.4722 35.7725 76.1379 34.9311 76.1379Z" fill="#A85EA0"/>
<path d="M34.9311 101.517C34.3037 101.517 33.6903 101.703 33.1686 102.052C32.6469 102.4 32.2402 102.896 32.0001 103.476C31.76 104.055 31.6972 104.693 31.8196 105.309C31.9421 105.924 32.2442 106.489 32.6879 106.933C33.1315 107.377 33.6968 107.679 34.3122 107.801C34.9276 107.923 35.5655 107.861 36.1452 107.621C36.7249 107.38 37.2203 106.974 37.5689 106.452C37.9175 105.93 38.1035 105.317 38.1035 104.69C38.1035 103.848 37.7693 103.041 37.1744 102.446C36.5794 101.851 35.7725 101.517 34.9311 101.517Z" fill="#A85EA0"/>
<path d="M34.9311 126.897C34.3037 126.897 33.6903 127.083 33.1686 127.431C32.6469 127.78 32.2402 128.275 32.0001 128.855C31.76 129.435 31.6972 130.072 31.8196 130.688C31.9421 131.303 32.2442 131.868 32.6879 132.312C33.1315 132.756 33.6968 133.058 34.3122 133.18C34.9276 133.303 35.5655 133.24 36.1452 133C36.7249 132.76 37.2203 132.353 37.5689 131.831C37.9175 131.31 38.1035 130.696 38.1035 130.069C38.1035 129.228 37.7693 128.421 37.1744 127.826C36.5794 127.231 35.7725 126.897 34.9311 126.897Z" fill="#A85EA0"/>
<path d="M34.9311 152.276C34.3037 152.276 33.6903 152.462 33.1686 152.811C32.6469 153.159 32.2402 153.655 32.0001 154.234C31.76 154.814 31.6972 155.452 31.8196 156.067C31.9421 156.683 32.2442 157.248 32.6879 157.692C33.1315 158.135 33.6968 158.437 34.3122 158.56C34.9276 158.682 35.5655 158.619 36.1452 158.379C36.7249 158.139 37.2203 157.732 37.5689 157.211C37.9175 156.689 38.1035 156.076 38.1035 155.448C38.1035 154.607 37.7693 153.8 37.1744 153.205C36.5794 152.61 35.7725 152.276 34.9311 152.276Z" fill="#A85EA0"/>
<path d="M34.9311 177.655C34.3037 177.655 33.6903 177.841 33.1686 178.19C32.6469 178.538 32.2402 179.034 32.0001 179.614C31.76 180.193 31.6972 180.831 31.8196 181.446C31.9421 182.062 32.2442 182.627 32.6879 183.071C33.1315 183.514 33.6968 183.817 34.3122 183.939C34.9276 184.061 35.5655 183.999 36.1452 183.758C36.7249 183.518 37.2203 183.112 37.5689 182.59C37.9175 182.068 38.1035 181.455 38.1035 180.828C38.1035 179.986 37.7693 179.179 37.1744 178.584C36.5794 177.989 35.7725 177.655 34.9311 177.655Z" fill="#A85EA0"/>
<path d="M60.3104 0C59.683 0 59.0696 0.186052 58.5479 0.534642C58.0262 0.883231 57.6195 1.37868 57.3794 1.95836C57.1393 2.53805 57.0765 3.17593 57.1989 3.79132C57.3213 4.40671 57.6235 4.97197 58.0671 5.41564C58.5108 5.85931 59.076 6.16146 59.6914 6.28387C60.3068 6.40628 60.9448 6.34345 61.5245 6.10334C62.1041 5.86323 62.5996 5.45659 62.9481 4.93489C63.2967 4.41319 63.4828 3.79986 63.4828 3.17241C63.4828 2.33104 63.1486 1.5241 62.5537 0.92916C61.9587 0.334217 61.1518 0 60.3104 0Z" fill="#A85EA0"/>
<path d="M60.3104 25.3793C59.683 25.3793 59.0696 25.5653 58.5479 25.9139C58.0262 26.2625 57.6195 26.758 57.3794 27.3376C57.1393 27.9173 57.0765 28.5552 57.1989 29.1706C57.3213 29.786 57.6235 30.3512 58.0671 30.7949C58.5108 31.2386 59.076 31.5407 59.6914 31.6631C60.3068 31.7855 60.9448 31.7227 61.5245 31.4826C62.1041 31.2425 62.5996 30.8359 62.9481 30.3142C63.2967 29.7925 63.4828 29.1791 63.4828 28.5517C63.4828 27.7103 63.1486 26.9034 62.5537 26.3084C61.9587 25.7135 61.1518 25.3793 60.3104 25.3793Z" fill="#A85EA0"/>
<path d="M60.3104 50.7587C59.683 50.7587 59.0696 50.9447 58.5479 51.2933C58.0262 51.6419 57.6195 52.1373 57.3794 52.717C57.1393 53.2967 57.0765 53.9345 57.1989 54.5499C57.3213 55.1653 57.6235 55.7306 58.0671 56.1742C58.5108 56.6179 59.076 56.92 59.6914 57.0424C60.3068 57.1648 60.9448 57.102 61.5245 56.8619C62.1041 56.6218 62.5996 56.2152 62.9481 55.6935C63.2967 55.1718 63.4828 54.5585 63.4828 53.931C63.4828 53.0897 63.1486 52.2827 62.5537 51.6878C61.9587 51.0929 61.1518 50.7587 60.3104 50.7587Z" fill="#A85EA0"/>
<path d="M60.3104 76.1379C59.683 76.1379 59.0696 76.324 58.5479 76.6726C58.0262 77.0212 57.6195 77.5166 57.3794 78.0963C57.1393 78.676 57.0765 79.3139 57.1989 79.9293C57.3213 80.5446 57.6235 81.1099 58.0671 81.5536C58.5108 81.9972 59.076 82.2994 59.6914 82.4218C60.3068 82.5442 60.9448 82.4814 61.5245 82.2413C62.1041 82.0012 62.5996 81.5945 62.9481 81.0728C63.2967 80.5511 63.4828 79.9378 63.4828 79.3104C63.4828 78.469 63.1486 77.662 62.5537 77.0671C61.9587 76.4722 61.1518 76.1379 60.3104 76.1379Z" fill="#A85EA0"/>
<path d="M60.3104 101.517C59.683 101.517 59.0696 101.703 58.5479 102.052C58.0262 102.4 57.6195 102.896 57.3794 103.476C57.1393 104.055 57.0765 104.693 57.1989 105.309C57.3213 105.924 57.6235 106.489 58.0671 106.933C58.5108 107.377 59.076 107.679 59.6914 107.801C60.3068 107.923 60.9448 107.861 61.5245 107.621C62.1041 107.38 62.5996 106.974 62.9481 106.452C63.2967 105.93 63.4828 105.317 63.4828 104.69C63.4828 103.848 63.1486 103.041 62.5537 102.446C61.9587 101.851 61.1518 101.517 60.3104 101.517Z" fill="#A85EA0"/>
<path d="M60.3104 126.897C59.683 126.897 59.0696 127.083 58.5479 127.431C58.0262 127.78 57.6195 128.275 57.3794 128.855C57.1393 129.435 57.0765 130.072 57.1989 130.688C57.3213 131.303 57.6235 131.868 58.0671 132.312C58.5108 132.756 59.076 133.058 59.6914 133.18C60.3068 133.303 60.9448 133.24 61.5245 133C62.1041 132.76 62.5996 132.353 62.9481 131.831C63.2967 131.31 63.4828 130.696 63.4828 130.069C63.4828 129.228 63.1486 128.421 62.5537 127.826C61.9587 127.231 61.1518 126.897 60.3104 126.897Z" fill="#A85EA0"/>
<path d="M60.3104 152.276C59.683 152.276 59.0696 152.462 58.5479 152.811C58.0262 153.159 57.6195 153.655 57.3794 154.234C57.1393 154.814 57.0765 155.452 57.1989 156.067C57.3213 156.683 57.6235 157.248 58.0671 157.692C58.5108 158.135 59.076 158.437 59.6914 158.56C60.3068 158.682 60.9448 158.619 61.5245 158.379C62.1041 158.139 62.5996 157.732 62.9481 157.211C63.2967 156.689 63.4828 156.076 63.4828 155.448C63.4828 154.607 63.1486 153.8 62.5537 153.205C61.9587 152.61 61.1518 152.276 60.3104 152.276Z" fill="#A85EA0"/>
<path d="M60.3104 177.655C59.683 177.655 59.0696 177.841 58.5479 178.19C58.0262 178.538 57.6195 179.034 57.3794 179.614C57.1393 180.193 57.0765 180.831 57.1989 181.446C57.3213 182.062 57.6235 182.627 58.0671 183.071C58.5108 183.514 59.076 183.817 59.6914 183.939C60.3068 184.061 60.9448 183.999 61.5245 183.758C62.1041 183.518 62.5996 183.112 62.9481 182.59C63.2967 182.068 63.4828 181.455 63.4828 180.828C63.4828 179.986 63.1486 179.179 62.5537 178.584C61.9587 177.989 61.1518 177.655 60.3104 177.655Z" fill="#A85EA0"/>
<path d="M85.6897 0C85.0622 0 84.4488 0.186052 83.9271 0.534642C83.4054 0.883231 82.9988 1.37868 82.7586 1.95836C82.5185 2.53805 82.4558 3.17593 82.5782 3.79132C82.7006 4.40671 83.0027 4.97197 83.4464 5.41564C83.8901 5.85931 84.4553 6.16146 85.0707 6.28387C85.6861 6.40628 86.324 6.34345 86.9037 6.10334C87.4834 5.86323 87.9788 5.45659 88.3274 4.93489C88.676 4.41319 88.8621 3.79986 88.8621 3.17241C88.8621 2.33104 88.5279 1.5241 87.9329 0.92916C87.338 0.334217 86.5311 0 85.6897 0Z" fill="#A85EA0"/>
<path d="M85.6897 25.3793C85.0622 25.3793 84.4488 25.5653 83.9271 25.9139C83.4054 26.2625 82.9988 26.758 82.7586 27.3376C82.5185 27.9173 82.4558 28.5552 82.5782 29.1706C82.7006 29.786 83.0027 30.3512 83.4464 30.7949C83.8901 31.2386 84.4553 31.5407 85.0707 31.6631C85.6861 31.7855 86.324 31.7227 86.9037 31.4826C87.4834 31.2425 87.9788 30.8359 88.3274 30.3142C88.676 29.7925 88.8621 29.1791 88.8621 28.5517C88.8621 27.7103 88.5279 26.9034 87.9329 26.3084C87.338 25.7135 86.5311 25.3793 85.6897 25.3793Z" fill="#A85EA0"/>
<path d="M85.6897 50.7587C85.0622 50.7587 84.4488 50.9447 83.9271 51.2933C83.4054 51.6419 82.9988 52.1373 82.7586 52.717C82.5185 53.2967 82.4558 53.9345 82.5782 54.5499C82.7006 55.1653 83.0027 55.7306 83.4464 56.1742C83.8901 56.6179 84.4553 56.92 85.0707 57.0424C85.6861 57.1648 86.324 57.102 86.9037 56.8619C87.4834 56.6218 87.9788 56.2152 88.3274 55.6935C88.676 55.1718 88.8621 54.5585 88.8621 53.931C88.8621 53.0897 88.5279 52.2827 87.9329 51.6878C87.338 51.0929 86.5311 50.7587 85.6897 50.7587Z" fill="#A85EA0"/>
<path d="M85.6897 76.1379C85.0622 76.1379 84.4488 76.324 83.9271 76.6726C83.4054 77.0212 82.9988 77.5166 82.7586 78.0963C82.5185 78.676 82.4558 79.3139 82.5782 79.9293C82.7006 80.5446 83.0027 81.1099 83.4464 81.5536C83.8901 81.9972 84.4553 82.2994 85.0707 82.4218C85.6861 82.5442 86.324 82.4814 86.9037 82.2413C87.4834 82.0012 87.9788 81.5945 88.3274 81.0728C88.676 80.5511 88.8621 79.9378 88.8621 79.3104C88.8621 78.469 88.5279 77.662 87.9329 77.0671C87.338 76.4722 86.5311 76.1379 85.6897 76.1379Z" fill="#A85EA0"/>
<path d="M85.6897 101.517C85.0622 101.517 84.4488 101.703 83.9271 102.052C83.4054 102.4 82.9988 102.896 82.7586 103.476C82.5185 104.055 82.4558 104.693 82.5782 105.309C82.7006 105.924 83.0027 106.489 83.4464 106.933C83.8901 107.377 84.4553 107.679 85.0707 107.801C85.6861 107.923 86.324 107.861 86.9037 107.621C87.4834 107.38 87.9788 106.974 88.3274 106.452C88.676 105.93 88.8621 105.317 88.8621 104.69C88.8621 103.848 88.5279 103.041 87.9329 102.446C87.338 101.851 86.5311 101.517 85.6897 101.517Z" fill="#A85EA0"/>
<path d="M85.6897 126.897C85.0622 126.897 84.4488 127.083 83.9271 127.431C83.4054 127.78 82.9988 128.275 82.7586 128.855C82.5185 129.435 82.4558 130.072 82.5782 130.688C82.7006 131.303 83.0027 131.868 83.4464 132.312C83.8901 132.756 84.4553 133.058 85.0707 133.18C85.6861 133.303 86.324 133.24 86.9037 133C87.4834 132.76 87.9788 132.353 88.3274 131.831C88.676 131.31 88.8621 130.696 88.8621 130.069C88.8621 129.228 88.5279 128.421 87.9329 127.826C87.338 127.231 86.5311 126.897 85.6897 126.897Z" fill="#A85EA0"/>
<path d="M85.6897 152.276C85.0622 152.276 84.4488 152.462 83.9271 152.811C83.4054 153.159 82.9988 153.655 82.7586 154.234C82.5185 154.814 82.4558 155.452 82.5782 156.067C82.7006 156.683 83.0027 157.248 83.4464 157.692C83.8901 158.135 84.4553 158.437 85.0707 158.56C85.6861 158.682 86.324 158.619 86.9037 158.379C87.4834 158.139 87.9788 157.732 88.3274 157.211C88.676 156.689 88.8621 156.076 88.8621 155.448C88.8621 154.607 88.5279 153.8 87.9329 153.205C87.338 152.61 86.5311 152.276 85.6897 152.276Z" fill="#A85EA0"/>
<path d="M85.6897 177.655C85.0622 177.655 84.4488 177.841 83.9271 178.19C83.4054 178.538 82.9988 179.034 82.7586 179.614C82.5185 180.193 82.4558 180.831 82.5782 181.446C82.7006 182.062 83.0027 182.627 83.4464 183.071C83.8901 183.514 84.4553 183.817 85.0707 183.939C85.6861 184.061 86.324 183.999 86.9037 183.758C87.4834 183.518 87.9788 183.112 88.3274 182.59C88.676 182.068 88.8621 181.455 88.8621 180.828C88.8621 179.986 88.5279 179.179 87.9329 178.584C87.338 177.989 86.5311 177.655 85.6897 177.655Z" fill="#A85EA0"/>
<path d="M111.069 0C110.442 0 109.828 0.186052 109.307 0.534642C108.785 0.883231 108.378 1.37868 108.138 1.95836C107.898 2.53805 107.835 3.17593 107.958 3.79132C108.08 4.40671 108.382 4.97197 108.826 5.41564C109.269 5.85931 109.835 6.16146 110.45 6.28387C111.065 6.40628 111.703 6.34345 112.283 6.10334C112.863 5.86323 113.358 5.45659 113.707 4.93489C114.055 4.41319 114.241 3.79986 114.241 3.17241C114.241 2.33104 113.907 1.5241 113.312 0.92916C112.717 0.334217 111.91 0 111.069 0Z" fill="#A85EA0"/>
<path d="M111.069 25.3793C110.442 25.3793 109.828 25.5653 109.307 25.9139C108.785 26.2625 108.378 26.758 108.138 27.3376C107.898 27.9173 107.835 28.5552 107.958 29.1706C108.08 29.786 108.382 30.3512 108.826 30.7949C109.269 31.2386 109.835 31.5407 110.45 31.6631C111.065 31.7855 111.703 31.7227 112.283 31.4826C112.863 31.2425 113.358 30.8359 113.707 30.3142C114.055 29.7925 114.241 29.1791 114.241 28.5517C114.241 27.7103 113.907 26.9034 113.312 26.3084C112.717 25.7135 111.91 25.3793 111.069 25.3793Z" fill="#A85EA0"/>
<path d="M111.069 50.7587C110.442 50.7587 109.828 50.9447 109.307 51.2933C108.785 51.6419 108.378 52.1373 108.138 52.717C107.898 53.2967 107.835 53.9345 107.958 54.5499C108.08 55.1653 108.382 55.7306 108.826 56.1742C109.269 56.6179 109.835 56.92 110.45 57.0424C111.065 57.1648 111.703 57.102 112.283 56.8619C112.863 56.6218 113.358 56.2152 113.707 55.6935C114.055 55.1718 114.241 54.5585 114.241 53.931C114.241 53.0897 113.907 52.2827 113.312 51.6878C112.717 51.0929 111.91 50.7587 111.069 50.7587Z" fill="#A85EA0"/>
<path d="M111.069 76.1379C110.442 76.1379 109.828 76.324 109.307 76.6726C108.785 77.0212 108.378 77.5166 108.138 78.0963C107.898 78.676 107.835 79.3139 107.958 79.9293C108.08 80.5446 108.382 81.1099 108.826 81.5536C109.269 81.9972 109.835 82.2994 110.45 82.4218C111.065 82.5442 111.703 82.4814 112.283 82.2413C112.863 82.0012 113.358 81.5945 113.707 81.0728C114.055 80.5511 114.241 79.9378 114.241 79.3104C114.241 78.469 113.907 77.662 113.312 77.0671C112.717 76.4722 111.91 76.1379 111.069 76.1379Z" fill="#A85EA0"/>
<path d="M111.069 101.517C110.442 101.517 109.828 101.703 109.307 102.052C108.785 102.4 108.378 102.896 108.138 103.476C107.898 104.055 107.835 104.693 107.958 105.309C108.08 105.924 108.382 106.489 108.826 106.933C109.269 107.377 109.835 107.679 110.45 107.801C111.065 107.923 111.703 107.861 112.283 107.621C112.863 107.38 113.358 106.974 113.707 106.452C114.055 105.93 114.241 105.317 114.241 104.69C114.241 103.848 113.907 103.041 113.312 102.446C112.717 101.851 111.91 101.517 111.069 101.517Z" fill="#A85EA0"/>
<path d="M111.069 126.897C110.442 126.897 109.828 127.083 109.307 127.431C108.785 127.78 108.378 128.275 108.138 128.855C107.898 129.435 107.835 130.072 107.958 130.688C108.08 131.303 108.382 131.868 108.826 132.312C109.269 132.756 109.835 133.058 110.45 133.18C111.065 133.303 111.703 133.24 112.283 133C112.863 132.76 113.358 132.353 113.707 131.831C114.055 131.31 114.241 130.696 114.241 130.069C114.241 129.228 113.907 128.421 113.312 127.826C112.717 127.231 111.91 126.897 111.069 126.897Z" fill="#A85EA0"/>
<path d="M111.069 152.276C110.442 152.276 109.828 152.462 109.307 152.811C108.785 153.159 108.378 153.655 108.138 154.234C107.898 154.814 107.835 155.452 107.958 156.067C108.08 156.683 108.382 157.248 108.826 157.692C109.269 158.135 109.835 158.437 110.45 158.56C111.065 158.682 111.703 158.619 112.283 158.379C112.863 158.139 113.358 157.732 113.707 157.211C114.055 156.689 114.241 156.076 114.241 155.448C114.241 154.607 113.907 153.8 113.312 153.205C112.717 152.61 111.91 152.276 111.069 152.276Z" fill="#A85EA0"/>
<path d="M111.069 177.655C110.442 177.655 109.828 177.841 109.307 178.19C108.785 178.538 108.378 179.034 108.138 179.614C107.898 180.193 107.835 180.831 107.958 181.446C108.08 182.062 108.382 182.627 108.826 183.071C109.269 183.514 109.835 183.817 110.45 183.939C111.065 184.061 111.703 183.999 112.283 183.758C112.863 183.518 113.358 183.112 113.707 182.59C114.055 182.068 114.241 181.455 114.241 180.828C114.241 179.986 113.907 179.179 113.312 178.584C112.717 177.989 111.91 177.655 111.069 177.655Z" fill="#A85EA0"/>
<path d="M136.448 0C135.821 0 135.208 0.186052 134.686 0.534642C134.164 0.883231 133.757 1.37868 133.517 1.95836C133.277 2.53805 133.214 3.17593 133.337 3.79132C133.459 4.40671 133.761 4.97197 134.205 5.41564C134.649 5.85931 135.214 6.16146 135.829 6.28387C136.445 6.40628 137.083 6.34345 137.662 6.10334C138.242 5.86323 138.737 5.45659 139.086 4.93489C139.435 4.41319 139.621 3.79986 139.621 3.17241C139.621 2.33104 139.287 1.5241 138.692 0.92916C138.097 0.334217 137.29 0 136.448 0Z" fill="#A85EA0"/>
<path d="M136.448 25.3793C135.821 25.3793 135.208 25.5653 134.686 25.9139C134.164 26.2625 133.757 26.758 133.517 27.3376C133.277 27.9173 133.214 28.5552 133.337 29.1706C133.459 29.786 133.761 30.3512 134.205 30.7949C134.649 31.2386 135.214 31.5407 135.829 31.6631C136.445 31.7855 137.083 31.7227 137.662 31.4826C138.242 31.2425 138.737 30.8359 139.086 30.3142C139.435 29.7925 139.621 29.1791 139.621 28.5517C139.621 27.7103 139.287 26.9034 138.692 26.3084C138.097 25.7135 137.29 25.3793 136.448 25.3793Z" fill="#A85EA0"/>
<path d="M136.448 50.7587C135.821 50.7587 135.208 50.9447 134.686 51.2933C134.164 51.6419 133.757 52.1373 133.517 52.717C133.277 53.2967 133.214 53.9345 133.337 54.5499C133.459 55.1653 133.761 55.7306 134.205 56.1742C134.649 56.6179 135.214 56.92 135.829 57.0424C136.445 57.1648 137.083 57.102 137.662 56.8619C138.242 56.6218 138.737 56.2152 139.086 55.6935C139.435 55.1718 139.621 54.5585 139.621 53.931C139.621 53.0897 139.287 52.2827 138.692 51.6878C138.097 51.0929 137.29 50.7587 136.448 50.7587Z" fill="#A85EA0"/>
<path d="M136.448 76.1379C135.821 76.1379 135.208 76.324 134.686 76.6726C134.164 77.0212 133.757 77.5166 133.517 78.0963C133.277 78.676 133.214 79.3139 133.337 79.9293C133.459 80.5446 133.761 81.1099 134.205 81.5536C134.649 81.9972 135.214 82.2994 135.829 82.4218C136.445 82.5442 137.083 82.4814 137.662 82.2413C138.242 82.0012 138.737 81.5945 139.086 81.0728C139.435 80.5511 139.621 79.9378 139.621 79.3104C139.621 78.469 139.287 77.662 138.692 77.0671C138.097 76.4722 137.29 76.1379 136.448 76.1379Z" fill="#A85EA0"/>
<path d="M136.448 101.517C135.821 101.517 135.208 101.703 134.686 102.052C134.164 102.4 133.757 102.896 133.517 103.476C133.277 104.055 133.214 104.693 133.337 105.309C133.459 105.924 133.761 106.489 134.205 106.933C134.649 107.377 135.214 107.679 135.829 107.801C136.445 107.923 137.083 107.861 137.662 107.621C138.242 107.38 138.737 106.974 139.086 106.452C139.435 105.93 139.621 105.317 139.621 104.69C139.621 103.848 139.287 103.041 138.692 102.446C138.097 101.851 137.29 101.517 136.448 101.517Z" fill="#A85EA0"/>
<path d="M136.448 126.897C135.821 126.897 135.208 127.083 134.686 127.431C134.164 127.78 133.757 128.275 133.517 128.855C133.277 129.435 133.214 130.072 133.337 130.688C133.459 131.303 133.761 131.868 134.205 132.312C134.649 132.756 135.214 133.058 135.829 133.18C136.445 133.303 137.083 133.24 137.662 133C138.242 132.76 138.737 132.353 139.086 131.831C139.435 131.31 139.621 130.696 139.621 130.069C139.621 129.228 139.287 128.421 138.692 127.826C138.097 127.231 137.29 126.897 136.448 126.897Z" fill="#A85EA0"/>
<path d="M136.448 152.276C135.821 152.276 135.208 152.462 134.686 152.811C134.164 153.159 133.757 153.655 133.517 154.234C133.277 154.814 133.214 155.452 133.337 156.067C133.459 156.683 133.761 157.248 134.205 157.692C134.649 158.135 135.214 158.437 135.829 158.56C136.445 158.682 137.083 158.619 137.662 158.379C138.242 158.139 138.737 157.732 139.086 157.211C139.435 156.689 139.621 156.076 139.621 155.448C139.621 154.607 139.287 153.8 138.692 153.205C138.097 152.61 137.29 152.276 136.448 152.276Z" fill="#A85EA0"/>
<path d="M136.448 177.655C135.821 177.655 135.208 177.841 134.686 178.19C134.164 178.538 133.757 179.034 133.517 179.614C133.277 180.193 133.214 180.831 133.337 181.446C133.459 182.062 133.761 182.627 134.205 183.071C134.649 183.514 135.214 183.817 135.829 183.939C136.445 184.061 137.083 183.999 137.662 183.758C138.242 183.518 138.737 183.112 139.086 182.59C139.435 182.068 139.621 181.455 139.621 180.828C139.621 179.986 139.287 179.179 138.692 178.584C138.097 177.989 137.29 177.655 136.448 177.655Z" fill="#A85EA0"/>
</svg>
